P2
# CREATOR: GIMP PNM Filter Version 1.1
62 23
255
255
255
255
255
255
255
255
255
255
255
255
255
255
255
255
255
255
255
255
255
255
255
255
255
255
255
255
255
255
255
255
255
255
255
255
255
255
255
255
255
255
255
255
255
255
255
255
255
255
255
255
255
255
255
255
255
255
255
255
255
255
255
255
255
255
255
255
255
255
255
255
237
237
237
237
237
237
237
237
237
237
237
237
237
237
237
237
237
237
237
237
237
237
237
237
237
237
237
237
237
237
237
237
237
237
237
237
237
237
237
237
237
237
237
237
237
255
255
255
255
255
255
255
255
255
255
255
255
255
255
237
237
237
237
237
237
237
237
237
237
237
237
237
237
237
237
237
237
237
237
237
237
237
237
237
237
237
237
237
237
237
237
237
237
237
237
237
237
237
237
237
237
237
237
237
237
237
237
228
216
200
255
255
255
255
255
255
255
255
255
255
237
237
237
237
230
224
222
222
222
222
222
222
222
222
222
222
222
222
222
222
222
222
222
222
222
222
222
222
222
222
222
222
222
222
222
222
222
222
222
222
222
222
222
222
222
222
222
222
224
224
209
186
181
255
255
255
255
255
255
255
255
237
237
237
226
215
211
211
211
212
211
211
211
211
211
211
211
211
211
211
212
212
211
212
212
211
211
212
212
212
212
211
211
211
211
211
211
211
211
212
211
211
211
211
212
212
211
211
211
211
212
212
208
193
176
174
255
255
255
255
255
255
237
237
237
217
207
206
206
206
206
206
206
176
91
40
19
19
42
86
161
206
206
206
14
205
206
206
14
78
205
205
205
205
206
206
205
77
14
206
205
14
14
14
14
22
56
134
206
206
206
206
205
204
205
201
185
165
159
255
255
255
255
237
237
237
211
201
200
200
200
200
200
199
140
39
124
176
194
183
135
49
14
200
200
200
14
200
200
200
14
37
176
200
200
200
200
200
176
54
14
200
200
14
199
200
200
183
135
33
121
200
200
200
200
200
199
199
193
166
135
142
255
255
255
237
235
207
194
194
194
193
194
193
193
167
36
174
194
194
194
194
193
192
93
193
194
194
14
193
194
194
14
110
92
194
194
194
194
193
91
127
14
193
193
14
194
193
194
194
194
146
37
194
193
194
193
194
193
193
191
173
134
118
255
255
255
237
212
190
188
187
187
187
187
188
187
85
113
188
188
188
187
187
188
188
187
187
188
188
14
188
187
187
14
175
29
176
188
188
187
176
36
183
14
188
188
14
187
187
187
188
188
177
16
188
188
188
188
188
188
188
187
179
141
102
255
255
230
219
192
183
182
182
182
182
181
182
182
38
157
182
181
182
182
182
182
182
182
182
181
182
14
182
182
181
14
182
82
104
182
182
182
103
93
182
14
181
181
14
182
182
182
182
182
138
35
182
182
181
181
182
182
181
181
177
141
85
126
255
216
203
180
175
175
175
175
175
175
175
176
18
170
175
175
176
176
176
175
176
175
175
176
175
14
175
175
176
14
176
150
31
172
175
172
33
157
176
14
176
175
14
175
175
175
161
121
31
104
176
175
175
176
176
176
175
175
171
136
76
111
255
208
195
174
170
169
170
170
170
169
170
170
18
165
169
170
170
170
14
14
14
14
170
169
170
14
170
170
169
14
170
170
57
112
169
112
65
170
169
14
169
170
14
14
14
14
20
47
110
170
169
169
169
169
170
170
170
170
164
131
71
105
255
199
187
167
163
164
163
164
164
164
164
164
35
140
164
164
164
164
164
163
164
14
164
164
164
14
163
164
164
14
164
163
121
41
164
40
126
164
164
14
164
164
14
164
164
163
164
164
163
164
164
164
164
164
164
164
163
164
158
125
68
101
255
185
176
161
158
157
157
157
157
157
158
157
70
92
157
157
157
157
157
157
157
14
158
157
157
14
157
157
157
14
157
157
157
36
80
39
157
157
157
14
157
157
14
157
157
157
157
157
157
157
158
157
157
157
157
157
157
157
148
109
58
91
255
163
161
155
152
150
152
152
152
151
152
152
129
27
132
152
151
151
151
151
152
14
151
151
152
14
151
151
151
14
151
152
152
95
14
96
151
151
151
14
151
152
14
151
152
152
152
151
152
151
151
152
151
151
152
152
152
148
129
79
44
81
255
255
150
150
146
146
146
146
146
146
146
145
145
96
26
87
126
142
139
124
84
14
146
146
146
14
146
146
146
14
145
145
146
145
146
146
146
146
146
14
145
145
14
146
146
146
146
146
145
146
145
146
146
145
145
146
145
135
103
54
41
255
255
255
135
135
138
139
138
140
140
140
140
140
140
139
115
59
27
16
18
34
68
117
140
139
140
14
140
140
139
14
139
140
140
140
140
139
139
140
140
14
140
139
14
139
140
140
140
140
140
140
140
140
140
139
139
138
130
107
66
38
51
255
255
255
119
115
121
131
133
132
134
134
134
133
133
134
134
133
134
133
134
134
133
134
133
133
134
134
133
133
134
133
134
134
133
133
133
133
133
134
134
133
134
134
133
133
133
133
134
134
133
133
134
133
133
133
133
125
103
66
37
38
255
255
255
255
255
107
106
115
123
126
128
128
128
128
128
128
127
127
128
128
128
127
128
127
128
128
128
127
128
127
127
128
128
128
128
128
128
128
128
127
128
127
128
128
127
127
127
127
128
128
128
128
128
127
127
125
119
98
62
35
34
62
255
255
255
255
255
255
100
98
101
109
116
118
118
119
119
119
118
118
119
118
118
118
119
119
118
118
119
118
118
118
118
119
118
118
119
118
119
118
118
118
119
118
118
118
118
118
119
119
118
118
118
119
118
118
114
103
86
57
34
33
58
255
255
255
255
255
255
255
255
89
78
80
87
90
89
89
89
89
89
90
90
89
90
89
89
89
89
89
90
90
90
90
89
89
90
89
89
89
89
89
89
89
89
89
90
90
89
89
90
89
90
89
89
89
89
89
80
61
43
31
34
56
255
255
255
255
255
255
255
255
255
255
78
67
61
52
47
46
46
46
46
46
46
46
46
46
46
46
46
46
46
46
46
46
46
46
46
46
46
46
46
46
46
46
46
46
46
46
46
46
46
46
46
46
46
46
46
45
40
32
31
40
255
255
255
255
255
255
255
255
255
255
255
255
255
255
255
72
66
65
65
65
65
65
65
65
65
65
65
65
65
65
65
65
65
65
65
65
65
65
65
65
65
65
65
65
65
65
65
65
65
65
65
65
65
65
65
65
65
64
60
55
255
255
255
255
255
255
255
255
